<svg xmlns="http://www.w3.org/2000/svg" xmlns:xlink="http://www.w3.org/1999/xlink" width="500" zoomAndPan="magnify" viewBox="0 0 375 374.999991" height="500" preserveAspectRatio="xMidYMid meet" version="1.0"><defs><g/><clipPath id="c73f99ef3e"><path d="M 30.933594 143.261719 L 90.183594 143.261719 L 90.183594 209.261719 L 30.933594 209.261719 Z M 30.933594 143.261719 " clip-rule="nonzero"/></clipPath></defs><g clip-path="url(#c73f99ef3e)"><path fill="#7ed957" d="M 75.546875 176.433594 L 72.050781 172.9375 L 55.960938 189.03125 L 48.96875 182.039062 L 45.472656 185.535156 L 55.960938 196.023438 Z M 83.691406 149.855469 L 80.394531 149.855469 L 80.394531 143.261719 L 73.800781 143.261719 L 73.800781 149.855469 L 47.417969 149.855469 L 47.417969 143.261719 L 40.824219 143.261719 L 40.824219 149.855469 L 37.527344 149.855469 C 33.882812 149.855469 30.964844 152.808594 30.964844 156.453125 L 30.933594 202.617188 C 30.933594 206.261719 33.882812 209.210938 37.527344 209.210938 L 83.691406 209.210938 C 87.335938 209.210938 90.289062 206.261719 90.289062 202.617188 L 90.289062 156.453125 C 90.289062 152.808594 87.335938 149.855469 83.691406 149.855469 Z M 83.691406 202.617188 L 37.527344 202.617188 L 37.527344 166.34375 L 83.691406 166.34375 Z M 83.691406 202.617188 " fill-opacity="1" fill-rule="nonzero"/></g><g fill="#c0c0c0" fill-opacity="1"><g transform="translate(96.568869, 198.644445)"><g><path d="M 33.46875 -30.984375 L 20.046875 0 L 12.96875 0 L -0.390625 -30.984375 L 7.34375 -30.984375 L 16.78125 -8.859375 L 26.34375 -30.984375 Z M 33.46875 -30.984375 "/></g></g></g><g fill="#c0c0c0" fill-opacity="1"><g transform="translate(129.366684, 198.644445)"><g><path d="M 3.1875 -23.8125 L 10.09375 -23.8125 L 10.09375 0 L 3.1875 0 Z M 6.640625 -27.140625 C 5.367188 -27.140625 4.332031 -27.503906 3.53125 -28.234375 C 2.738281 -28.972656 2.34375 -29.890625 2.34375 -30.984375 C 2.34375 -32.078125 2.738281 -32.992188 3.53125 -33.734375 C 4.332031 -34.472656 5.367188 -34.84375 6.640625 -34.84375 C 7.910156 -34.84375 8.941406 -34.488281 9.734375 -33.78125 C 10.535156 -33.070312 10.9375 -32.1875 10.9375 -31.125 C 10.9375 -29.96875 10.535156 -29.015625 9.734375 -28.265625 C 8.941406 -27.515625 7.910156 -27.140625 6.640625 -27.140625 Z M 6.640625 -27.140625 "/></g></g></g><g fill="#c0c0c0" fill-opacity="1"><g transform="translate(142.689437, 198.644445)"><g><path d="M 11.203125 0.359375 C 9.222656 0.359375 7.285156 0.113281 5.390625 -0.375 C 3.503906 -0.863281 2.003906 -1.476562 0.890625 -2.21875 L 3.1875 -7.171875 C 4.25 -6.492188 5.53125 -5.941406 7.03125 -5.515625 C 8.539062 -5.085938 10.019531 -4.875 11.46875 -4.875 C 14.382812 -4.875 15.84375 -5.59375 15.84375 -7.03125 C 15.84375 -7.71875 15.441406 -8.207031 14.640625 -8.5 C 13.847656 -8.789062 12.628906 -9.039062 10.984375 -9.25 C 9.035156 -9.539062 7.425781 -9.878906 6.15625 -10.265625 C 4.882812 -10.648438 3.78125 -11.328125 2.84375 -12.296875 C 1.914062 -13.273438 1.453125 -14.664062 1.453125 -16.46875 C 1.453125 -17.96875 1.890625 -19.300781 2.765625 -20.46875 C 3.640625 -21.632812 4.910156 -22.539062 6.578125 -23.1875 C 8.242188 -23.84375 10.210938 -24.171875 12.484375 -24.171875 C 14.160156 -24.171875 15.832031 -23.984375 17.5 -23.609375 C 19.175781 -23.242188 20.554688 -22.738281 21.640625 -22.09375 L 19.34375 -17.171875 C 17.25 -18.359375 14.960938 -18.953125 12.484375 -18.953125 C 11.003906 -18.953125 9.894531 -18.742188 9.15625 -18.328125 C 8.425781 -17.910156 8.0625 -17.378906 8.0625 -16.734375 C 8.0625 -15.992188 8.457031 -15.472656 9.25 -15.171875 C 10.050781 -14.878906 11.320312 -14.601562 13.0625 -14.34375 C 15.007812 -14.019531 16.601562 -13.671875 17.84375 -13.296875 C 19.082031 -12.929688 20.15625 -12.257812 21.0625 -11.28125 C 21.976562 -10.3125 22.4375 -8.957031 22.4375 -7.21875 C 22.4375 -5.738281 21.992188 -4.421875 21.109375 -3.265625 C 20.222656 -2.117188 18.929688 -1.226562 17.234375 -0.59375 C 15.546875 0.0390625 13.535156 0.359375 11.203125 0.359375 Z M 11.203125 0.359375 "/></g></g></g><g fill="#c0c0c0" fill-opacity="1"><g transform="translate(166.192361, 198.644445)"><g><path d="M 3.1875 -23.8125 L 10.09375 -23.8125 L 10.09375 0 L 3.1875 0 Z M 6.640625 -27.140625 C 5.367188 -27.140625 4.332031 -27.503906 3.53125 -28.234375 C 2.738281 -28.972656 2.34375 -29.890625 2.34375 -30.984375 C 2.34375 -32.078125 2.738281 -32.992188 3.53125 -33.734375 C 4.332031 -34.472656 5.367188 -34.84375 6.640625 -34.84375 C 7.910156 -34.84375 8.941406 -34.488281 9.734375 -33.78125 C 10.535156 -33.070312 10.9375 -32.1875 10.9375 -31.125 C 10.9375 -29.96875 10.535156 -29.015625 9.734375 -28.265625 C 8.941406 -27.515625 7.910156 -27.140625 6.640625 -27.140625 Z M 6.640625 -27.140625 "/></g></g></g><g fill="#c0c0c0" fill-opacity="1"><g transform="translate(179.515115, 198.644445)"><g><path d="M 14.515625 0.359375 C 12.003906 0.359375 9.753906 -0.160156 7.765625 -1.203125 C 5.773438 -2.253906 4.21875 -3.707031 3.09375 -5.5625 C 1.976562 -7.425781 1.421875 -9.539062 1.421875 -11.90625 C 1.421875 -14.269531 1.976562 -16.378906 3.09375 -18.234375 C 4.21875 -20.097656 5.773438 -21.550781 7.765625 -22.59375 C 9.753906 -23.644531 12.003906 -24.171875 14.515625 -24.171875 C 17.023438 -24.171875 19.269531 -23.644531 21.25 -22.59375 C 23.226562 -21.550781 24.773438 -20.097656 25.890625 -18.234375 C 27.015625 -16.378906 27.578125 -14.269531 27.578125 -11.90625 C 27.578125 -9.539062 27.015625 -7.425781 25.890625 -5.5625 C 24.773438 -3.707031 23.226562 -2.253906 21.25 -1.203125 C 19.269531 -0.160156 17.023438 0.359375 14.515625 0.359375 Z M 14.515625 -5.3125 C 16.285156 -5.3125 17.738281 -5.90625 18.875 -7.09375 C 20.007812 -8.289062 20.578125 -9.894531 20.578125 -11.90625 C 20.578125 -13.914062 20.007812 -15.515625 18.875 -16.703125 C 17.738281 -17.898438 16.285156 -18.5 14.515625 -18.5 C 12.742188 -18.5 11.28125 -17.898438 10.125 -16.703125 C 8.976562 -15.515625 8.40625 -13.914062 8.40625 -11.90625 C 8.40625 -9.894531 8.976562 -8.289062 10.125 -7.09375 C 11.28125 -5.90625 12.742188 -5.3125 14.515625 -5.3125 Z M 14.515625 -5.3125 "/></g></g></g><g fill="#c0c0c0" fill-opacity="1"><g transform="translate(208.506488, 198.644445)"><g><path d="M 17.65625 -24.171875 C 20.613281 -24.171875 23 -23.285156 24.8125 -21.515625 C 26.625 -19.742188 27.53125 -17.117188 27.53125 -13.640625 L 27.53125 0 L 20.625 0 L 20.625 -12.578125 C 20.625 -14.460938 20.210938 -15.867188 19.390625 -16.796875 C 18.566406 -17.722656 17.367188 -18.1875 15.796875 -18.1875 C 14.054688 -18.1875 12.671875 -17.648438 11.640625 -16.578125 C 10.609375 -15.503906 10.09375 -13.90625 10.09375 -11.78125 L 10.09375 0 L 3.1875 0 L 3.1875 -23.8125 L 9.78125 -23.8125 L 9.78125 -21.03125 C 10.695312 -22.03125 11.832031 -22.800781 13.1875 -23.34375 C 14.550781 -23.894531 16.039062 -24.171875 17.65625 -24.171875 Z M 17.65625 -24.171875 "/></g></g></g><g fill="#7ed957" fill-opacity="1"><g transform="translate(239.092297, 198.644445)"><g><path d="M 10.84375 -25.234375 L 10.84375 -17.046875 L 25.1875 -17.046875 L 25.1875 -11.28125 L 10.84375 -11.28125 L 10.84375 0 L 3.671875 0 L 3.671875 -30.984375 L 27.09375 -30.984375 L 27.09375 -25.234375 Z M 10.84375 -25.234375 "/></g></g></g><g fill="#7ed957" fill-opacity="1"><g transform="translate(266.755664, 198.644445)"><g><path d="M 26.515625 -11.8125 C 26.515625 -11.726562 26.46875 -11.109375 26.375 -9.953125 L 8.359375 -9.953125 C 8.691406 -8.484375 9.460938 -7.316406 10.671875 -6.453125 C 11.878906 -5.597656 13.382812 -5.171875 15.1875 -5.171875 C 16.425781 -5.171875 17.523438 -5.351562 18.484375 -5.71875 C 19.441406 -6.09375 20.332031 -6.679688 21.15625 -7.484375 L 24.828125 -3.5 C 22.585938 -0.925781 19.3125 0.359375 15 0.359375 C 12.320312 0.359375 9.945312 -0.160156 7.875 -1.203125 C 5.8125 -2.253906 4.21875 -3.707031 3.09375 -5.5625 C 1.976562 -7.425781 1.421875 -9.539062 1.421875 -11.90625 C 1.421875 -14.238281 1.972656 -16.34375 3.078125 -18.21875 C 4.179688 -20.09375 5.695312 -21.550781 7.625 -22.59375 C 9.5625 -23.644531 11.726562 -24.171875 14.125 -24.171875 C 16.457031 -24.171875 18.566406 -23.664062 20.453125 -22.65625 C 22.335938 -21.65625 23.816406 -20.21875 24.890625 -18.34375 C 25.972656 -16.46875 26.515625 -14.289062 26.515625 -11.8125 Z M 14.171875 -18.953125 C 12.597656 -18.953125 11.28125 -18.507812 10.21875 -17.625 C 9.15625 -16.738281 8.507812 -15.523438 8.28125 -13.984375 L 20.015625 -13.984375 C 19.773438 -15.492188 19.125 -16.695312 18.0625 -17.59375 C 17 -18.5 15.703125 -18.953125 14.171875 -18.953125 Z M 14.171875 -18.953125 "/></g></g></g><g fill="#7ed957" fill-opacity="1"><g transform="translate(294.684751, 198.644445)"><g><path d="M 11.203125 0.359375 C 9.222656 0.359375 7.285156 0.113281 5.390625 -0.375 C 3.503906 -0.863281 2.003906 -1.476562 0.890625 -2.21875 L 3.1875 -7.171875 C 4.25 -6.492188 5.53125 -5.941406 7.03125 -5.515625 C 8.539062 -5.085938 10.019531 -4.875 11.46875 -4.875 C 14.382812 -4.875 15.84375 -5.59375 15.84375 -7.03125 C 15.84375 -7.71875 15.441406 -8.207031 14.640625 -8.5 C 13.847656 -8.789062 12.628906 -9.039062 10.984375 -9.25 C 9.035156 -9.539062 7.425781 -9.878906 6.15625 -10.265625 C 4.882812 -10.648438 3.78125 -11.328125 2.84375 -12.296875 C 1.914062 -13.273438 1.453125 -14.664062 1.453125 -16.46875 C 1.453125 -17.96875 1.890625 -19.300781 2.765625 -20.46875 C 3.640625 -21.632812 4.910156 -22.539062 6.578125 -23.1875 C 8.242188 -23.84375 10.210938 -24.171875 12.484375 -24.171875 C 14.160156 -24.171875 15.832031 -23.984375 17.5 -23.609375 C 19.175781 -23.242188 20.554688 -22.738281 21.640625 -22.09375 L 19.34375 -17.171875 C 17.25 -18.359375 14.960938 -18.953125 12.484375 -18.953125 C 11.003906 -18.953125 9.894531 -18.742188 9.15625 -18.328125 C 8.425781 -17.910156 8.0625 -17.378906 8.0625 -16.734375 C 8.0625 -15.992188 8.457031 -15.472656 9.25 -15.171875 C 10.050781 -14.878906 11.320312 -14.601562 13.0625 -14.34375 C 15.007812 -14.019531 16.601562 -13.671875 17.84375 -13.296875 C 19.082031 -12.929688 20.15625 -12.257812 21.0625 -11.28125 C 21.976562 -10.3125 22.4375 -8.957031 22.4375 -7.21875 C 22.4375 -5.738281 21.992188 -4.421875 21.109375 -3.265625 C 20.222656 -2.117188 18.929688 -1.226562 17.234375 -0.59375 C 15.546875 0.0390625 13.535156 0.359375 11.203125 0.359375 Z M 11.203125 0.359375 "/></g></g></g><g fill="#7ed957" fill-opacity="1"><g transform="translate(318.187675, 198.644445)"><g><path d="M 18.546875 -1.15625 C 17.867188 -0.644531 17.035156 -0.265625 16.046875 -0.015625 C 15.054688 0.234375 14.015625 0.359375 12.921875 0.359375 C 10.085938 0.359375 7.894531 -0.363281 6.34375 -1.8125 C 4.800781 -3.257812 4.03125 -5.382812 4.03125 -8.1875 L 4.03125 -17.96875 L 0.359375 -17.96875 L 0.359375 -23.28125 L 4.03125 -23.28125 L 4.03125 -29.078125 L 10.9375 -29.078125 L 10.9375 -23.28125 L 16.859375 -23.28125 L 16.859375 -17.96875 L 10.9375 -17.96875 L 10.9375 -8.28125 C 10.9375 -7.269531 11.191406 -6.492188 11.703125 -5.953125 C 12.222656 -5.410156 12.957031 -5.140625 13.90625 -5.140625 C 14.988281 -5.140625 15.914062 -5.429688 16.6875 -6.015625 Z M 18.546875 -1.15625 "/></g></g></g></svg>